<svg width="360" height="160" viewBox="0 0 360 160" fill="none" xmlns="http://www.w3.org/2000/svg" role="img" aria-labelledby="title desc">
  <title id="title">D-R-C Kältetechnik GmbH</title>
  <desc id="desc">DRC refrigeration company logo</desc>
  <rect width="360" height="160" rx="34" fill="url(#bg)"/>
  <path d="M39 112V48h48c22 0 38 13 38 32s-16 32-38 32H39Zm26-22h20c9 0 15-4 15-10s-6-10-15-10H65v20Z" fill="white"/>
  <path d="M141 112V48h54c18 0 31 10 31 26 0 11-7 20-18 24l21 14h-36l-17-12h-9v12h-26Zm26-32h25c5 0 9-2 9-6s-4-6-9-6h-25v12Z" fill="white"/>
  <path d="M285 114c-30 0-51-14-51-34s21-34 51-34c15 0 28 4 37 11l-17 17c-5-4-12-6-20-6-15 0-25 5-25 12s10 12 25 12c8 0 15-2 20-6l17 17c-9 7-22 11-37 11Z" fill="white"/>
  <path d="M39 128h282" stroke="white" stroke-width="4" stroke-linecap="round" opacity=".7"/>
  <path d="M40 31c36-16 74-16 113 0 39 16 77 16 115 0 21-9 39-12 54-10" stroke="#9ff9ef" stroke-width="7" stroke-linecap="round"/>
  <defs>
    <linearGradient id="bg" x1="0" y1="0" x2="360" y2="160" gradientUnits="userSpaceOnUse">
      <stop stop-color="#072C57"/>
      <stop offset=".52" stop-color="#008E80"/>
      <stop offset="1" stop-color="#FF8A00"/>
    </linearGradient>
  </defs>
</svg>
