<svg width="194" height="35" xmlns="http://www.w3.org/2000/svg"><path d="M26.324 10.198h-6.23a7.216 7.216 0 01-.048-.696c-.148-1.906-.567-3.105-1.256-3.594-.69-.49-2.315-.734-4.876-.734-3.02 0-4.995.282-5.923.846-.927.564-1.39 1.75-1.39 3.558 0 2.139.375 3.424 1.133 3.855.754.432 3.249.763 7.485.995 5.007.283 8.245 1.003 9.714 2.165 1.469 1.161 2.204 3.575 2.204 7.24 0 4.512-.862 7.425-2.585 8.744-1.724 1.317-5.527 1.978-11.402 1.978-5.285 0-8.796-.648-10.527-1.94C.889 31.32.024 28.7.024 24.752L0 23.51h6.204l.026.719c0 2.372.41 3.823 1.231 4.355.82.53 3.062.795 6.723.795 2.857 0 4.68-.306 5.467-.92.788-.614 1.182-2.031 1.182-4.254 0-1.642-.3-2.732-.898-3.272-.6-.539-1.893-.866-3.879-.982l-3.52-.225c-5.321-.313-8.718-1.06-10.196-2.237C.862 16.309.124 13.782.124 9.9c0-3.963.889-6.605 2.671-7.923C4.577.66 8.135 0 13.47 0c5.057 0 8.464.605 10.22 1.816 1.756 1.211 2.634 3.573 2.634 7.09v1.292zm26.641 17.539H38.462l-2.094 6.518H29.62L40.801.299h9.578l11.353 33.956h-6.624l-2.143-6.518zM95.838.299v33.956h-10.81l-9.604-18.633c-.478-.93-1.223-2.553-2.24-4.877l-1.085-2.438-1.057-2.437h-.247l.097 2.24.075 2.211.05 4.455v19.478H64.64V.298h10.81l8.742 17.213a211.043 211.043 0 012.683 5.548l1.28 2.762 1.282 2.785h.222l-.073-2.188-.075-2.191-.049-4.377V.299h6.375zm31.528 0v33.956h-6.379V19.577h-15.76v14.678H98.85V.299h6.377v13.855h15.76V.299h6.379zm24.37 0h6.377v22.586c0 4.727-.898 7.853-2.695 9.378-1.8 1.526-5.471 2.29-11.02 2.29-5.861 0-9.704-.721-11.526-2.166-1.822-1.442-2.732-4.486-2.732-9.129V.298h6.377v22.96c0 2.504.443 4.093 1.33 4.763.888.673 2.972 1.01 6.255 1.01 3.365 0 5.48-.34 6.341-1.021.86-.68 1.293-2.346 1.293-5V.3zm32.604 27.438h-14.505l-2.095 6.518h-6.746L172.174.299h9.579l11.35 33.956h-6.621l-2.142-6.518zm-1.478-4.752l-5.813-17.687-5.711 17.687h11.524zm-131.374 0L45.676 5.298l-5.714 17.687h11.526z" fill="#FFF"/></svg>